<?xml version="1.0" standalone="no"?>
<!DOCTYPE svg PUBLIC "-//W3C//DTD SVG 20010904//EN"
 "http://www.w3.org/TR/2001/REC-SVG-20010904/DTD/svg10.dtd">
<svg version="1.0" xmlns="http://www.w3.org/2000/svg"
 width="512.000000pt" height="512.000000pt" viewBox="0 0 512.000000 512.000000"
 preserveAspectRatio="xMidYMid meet">

<g transform="translate(0.000000,512.000000) scale(0.100000,-0.100000)"
fill="#000000" stroke="none">
<path d="M2137 4614 c-139 -33 -290 -132 -324 -211 l-13 -33 -98 0 -97 0 -23
50 c-16 34 -37 59 -64 78 l-42 27 -346 0 -346 0 -37 -25 c-50 -35 -80 -92 -81
-156 l-1 -52 -66 -35 c-116 -60 -182 -109 -280 -206 -137 -138 -223 -279 -273
-452 -47 -162 -47 -184 -44 -1219 l3 -975 27 -98 c107 -389 396 -677 785 -785
l98 -27 1645 0 1645 0 98 27 c389 107 678 397 785 785 l27 98 3 970 c3 1026 2
1064 -44 1221 -53 183 -134 317 -283 464 -162 160 -321 245 -538 289 -92 19
-137 21 -517 21 l-416 0 -13 33 c-34 80 -186 178 -329 212 -88 21 -754 20
-841 -1z m2047 -589 c278 -57 498 -263 578 -541 l23 -79 0 -970 c0 -887 -1
-976 -17 -1037 -71 -274 -269 -474 -548 -554 -62 -18 -139 -19 -1605 -22
-1065 -2 -1566 0 -1623 8 -345 45 -607 307 -652 652 -8 56 -10 378 -8 1003 3
912 4 921 25 998 65 227 235 417 453 505 129 52 71 50 1743 51 1352 1 1567 -1
1631 -14z"/>
<path d="M930 3904 c-134 -36 -268 -124 -345 -227 -102 -134 -129 -222 -129
-417 l-1 -145 335 -2 335 -3 42 78 c160 298 437 553 753 694 l85 38 -510 -1
c-416 0 -520 -3 -565 -15z"/>
<path d="M3200 3882 c318 -142 593 -396 753 -694 l42 -78 339 0 338 0 -4 153
c-4 131 -8 162 -31 225 -67 189 -201 325 -395 401 l-67 26 -530 3 -530 2 85
-38z"/>
<path d="M2385 3844 c-328 -50 -607 -187 -828 -409 -225 -225 -365 -511 -408
-832 -14 -109 -7 -328 16 -441 111 -564 546 -1001 1118 -1124 146 -31 408 -31
553 0 293 63 516 184 725 392 264 263 400 570 416 940 9 217 -23 405 -101 597
-177 434 -559 752 -1031 858 -69 16 -393 29 -460 19z m351 -339 c446 -77 797
-414 891 -855 21 -101 24 -323 4 -415 -134 -640 -756 -1025 -1369 -849 -395
113 -687 435 -773 849 -20 92 -17 314 4 415 121 570 676 952 1243 855z"/>
<path d="M2375 3313 c-355 -76 -633 -361 -700 -718 -24 -125 -16 -288 20 -410
81 -276 279 -492 546 -595 422 -162 908 23 1116 425 73 142 103 267 103 425 0
419 -305 788 -722 874 -96 20 -269 20 -363 -1z m485 -122 c150 -57 227 -176
171 -267 -60 -98 -276 -96 -406 4 -96 73 -121 162 -64 227 58 66 181 81 299
36z m-516 -1381 c139 -35 256 -116 256 -175 0 -88 -272 -63 -427 40 -60 40
-86 74 -81 107 7 51 116 63 252 28z"/>
<path d="M4242 1395 c-52 -32 -82 -87 -82 -150 0 -122 121 -204 235 -160 105
40 145 163 82 255 -36 54 -70 73 -134 77 -49 3 -65 0 -101 -22z"/>
</g>
</svg>
